<?xml version="1.0" encoding="UTF-8" standalone="no" ?>
<!DOCTYPE svg PUBLIC "-//W3C//DTD SVG 1.1//EN" "http://www.w3.org/Graphics/SVG/1.1/DTD/svg11.dtd">
<svg xmlns="http://www.w3.org/2000/svg" xmlns:xlink="http://www.w3.org/1999/xlink" version="1.1" width="350" height="350" viewBox="0 0 350 350" xml:space="preserve">
<desc>Created with Fabric.js 1.7.22</desc>
<defs>
</defs>
<g id="icon" style="stroke: none; stroke-width: 1; stroke-dasharray: none; stroke-linecap: butt; stroke-linejoin: miter; stroke-miterlimit: 10; fill: none; fill-rule: nonzero; opacity: 1;" transform="translate(-1.9444444444444287 -1.9444444444444287) scale(3.89 3.89)" >
	<path d="M 89.132 45.062 l -42.05 -42.05 c -1.15 -1.15 -3.014 -1.15 -4.164 0 l -42.05 42.05 c -1.855 1.855 -0.541 5.026 2.082 5.026 h 6.335 c 1.626 0 2.944 1.318 2.944 2.944 v 31.874 c 0 1.626 1.318 2.944 2.944 2.944 h 15.994 c 1.798 0 3.255 -1.457 3.255 -3.255 V 63.811 c 0 -1.97 1.597 -3.566 3.566 -3.566 h 14.024 c 1.97 0 3.566 1.597 3.566 3.566 v 20.784 c 0 1.798 1.457 3.255 3.255 3.255 h 15.994 c 1.626 0 2.944 -1.318 2.944 -2.944 V 53.032 c 0 -1.626 1.318 -2.944 2.944 -2.944 h 6.335 C 89.673 50.088 90.986 46.917 89.132 45.062 z" style="stroke: none; stroke-width: 1; stroke-dasharray: none; stroke-linecap: butt; stroke-linejoin: miter; stroke-miterlimit: 10; fill: rgb(255, 255, 255); fill-rule: nonzero; opacity: 1;" transform=" matrix(1 0 0 1 0 0) " stroke-linecap="round" />
	<path d="M 41.236 79.709 h -1.681 c -1.101 0 -1.994 -0.893 -1.994 -1.994 v 0 c 0 -1.101 0.893 -1.994 1.994 -1.994 h 1.681 c 1.101 0 1.994 0.893 1.994 1.994 v 0 C 43.23 78.816 42.337 79.709 41.236 79.709 z" style="stroke: none; stroke-width: 1; stroke-dasharray: none; stroke-linecap: butt; stroke-linejoin: miter; stroke-miterlimit: 10; fill: rgb(255, 255, 255); fill-rule: nonzero; opacity: 1;" transform=" matrix(1 0 0 1 0 0) " stroke-linecap="round" />
</g>
</svg>